<svg xmlns="http://www.w3.org/2000/svg" viewBox="0 0 512 512">
  <rect width="512" height="512" rx="116" fill="#f6f0e6"/>
  <g transform="translate(256 256) scale(1) translate(-256 -256)">
  <path d="M0 0 C -132 -49.92, -73.44000000000001 -178.88, 55.199999999999996 -208
            C 169.44 -178.88, 132 -49.92, 0 0 Z"
     fill="#c9a0a8" transform="translate(256 256) rotate(0)"/><path d="M0 0 C -132 -49.92, -73.44000000000001 -178.88, 55.199999999999996 -208
            C 169.44 -178.88, 132 -49.92, 0 0 Z"
     fill="#c9a0a8" transform="translate(256 256) rotate(45)"/><path d="M0 0 C -132 -49.92, -73.44000000000001 -178.88, 55.199999999999996 -208
            C 169.44 -178.88, 132 -49.92, 0 0 Z"
     fill="#c9a0a8" transform="translate(256 256) rotate(90)"/><path d="M0 0 C -132 -49.92, -73.44000000000001 -178.88, 55.199999999999996 -208
            C 169.44 -178.88, 132 -49.92, 0 0 Z"
     fill="#c9a0a8" transform="translate(256 256) rotate(135)"/><path d="M0 0 C -132 -49.92, -73.44000000000001 -178.88, 55.199999999999996 -208
            C 169.44 -178.88, 132 -49.92, 0 0 Z"
     fill="#c9a0a8" transform="translate(256 256) rotate(180)"/><path d="M0 0 C -132 -49.92, -73.44000000000001 -178.88, 55.199999999999996 -208
            C 169.44 -178.88, 132 -49.92, 0 0 Z"
     fill="#c9a0a8" transform="translate(256 256) rotate(225)"/><path d="M0 0 C -132 -49.92, -73.44000000000001 -178.88, 55.199999999999996 -208
            C 169.44 -178.88, 132 -49.92, 0 0 Z"
     fill="#c9a0a8" transform="translate(256 256) rotate(270)"/><path d="M0 0 C -132 -49.92, -73.44000000000001 -178.88, 55.199999999999996 -208
            C 169.44 -178.88, 132 -49.92, 0 0 Z"
     fill="#c9a0a8" transform="translate(256 256) rotate(315)"/>
  <path d="M0 0 C -100 -35.04, -54 -125.56, 43.699999999999996 -146
            C 130 -125.56, 100 -35.04, 0 0 Z"
     fill="#8d74a8" transform="translate(256 256) rotate(28)"/><path d="M0 0 C -100 -35.04, -54 -125.56, 43.699999999999996 -146
            C 130 -125.56, 100 -35.04, 0 0 Z"
     fill="#8d74a8" transform="translate(256 256) rotate(88)"/><path d="M0 0 C -100 -35.04, -54 -125.56, 43.699999999999996 -146
            C 130 -125.56, 100 -35.04, 0 0 Z"
     fill="#8d74a8" transform="translate(256 256) rotate(148)"/><path d="M0 0 C -100 -35.04, -54 -125.56, 43.699999999999996 -146
            C 130 -125.56, 100 -35.04, 0 0 Z"
     fill="#8d74a8" transform="translate(256 256) rotate(208)"/><path d="M0 0 C -100 -35.04, -54 -125.56, 43.699999999999996 -146
            C 130 -125.56, 100 -35.04, 0 0 Z"
     fill="#8d74a8" transform="translate(256 256) rotate(268)"/><path d="M0 0 C -100 -35.04, -54 -125.56, 43.699999999999996 -146
            C 130 -125.56, 100 -35.04, 0 0 Z"
     fill="#8d74a8" transform="translate(256 256) rotate(328)"/>
  <path d="M0 0 C -62 -20.16, -31.04 -72.24, 29.9 -84
            C 83.03999999999999 -72.24, 62 -20.16, 0 0 Z"
     fill="#62477f" transform="translate(256 256) rotate(58)"/><path d="M0 0 C -62 -20.16, -31.04 -72.24, 29.9 -84
            C 83.03999999999999 -72.24, 62 -20.16, 0 0 Z"
     fill="#62477f" transform="translate(256 256) rotate(148)"/><path d="M0 0 C -62 -20.16, -31.04 -72.24, 29.9 -84
            C 83.03999999999999 -72.24, 62 -20.16, 0 0 Z"
     fill="#62477f" transform="translate(256 256) rotate(238)"/><path d="M0 0 C -62 -20.16, -31.04 -72.24, 29.9 -84
            C 83.03999999999999 -72.24, 62 -20.16, 0 0 Z"
     fill="#62477f" transform="translate(256 256) rotate(328)"/>
  <circle cx="256" cy="256" r="20" fill="#dcbcc1"/></g>
</svg>
